Coordinates
version=1
nRows=17
nColumns=40
inDegrees=yes

Units are S.I. units (second, meters, Newtons, ...)
Angles are in degrees.

endheader
time	pelvis_tilt	pelvis_list	pelvis_rotation	pelvis_tx	pelvis_ty	pelvis_tz	hip_flexion_r	hip_adduction_r	hip_rotation_r	knee_angle_r	knee_angle_r_beta	ankle_angle_r	subtalar_angle_r	mtp_angle_r	hip_flexion_l	hip_adduction_l	hip_rotation_l	knee_angle_l	knee_angle_l_beta	ankle_angle_l	subtalar_angle_l	mtp_angle_l	lumbar_extension	lumbar_bending	lumbar_rotation	arm_flex_r	arm_add_r	arm_rot_r	elbow_flex_r	pro_sup_r	wrist_flex_r	wrist_dev_r	arm_flex_l	arm_add_l	arm_rot_l	elbow_flex_l	pro_sup_l	wrist_flex_l	wrist_dev_l
     17.48528571	     -2.83290296	     -4.12547601	      0.94988921	      1.01632927	      0.93221461	      0.41819435	     30.62402657	     -5.21355176	     -5.37552954	     57.90642266	     57.90642266	      0.77420179	    -15.61836096	      0.88669945	     13.37782611	     -5.77333829	     -6.52247848	     22.28964674	     22.28964674	     13.28733643	    -13.06135870	     -0.57644886	    -11.15738049	      3.87871299	      1.72441455	      5.95157079	    -14.70721036	     -2.46008157	     23.47668358	     47.23770136	      0.00000000	      0.00000000	     12.68460981	    -17.62925943	      5.57180483	     52.22775862	     45.43074680	      0.00000000	      0.00000000
     17.49807143	     -2.90849217	     -4.14848090	      0.43995957	      1.01600468	      0.93242781	      0.41886446	     30.76851973	     -5.05053559	     -5.66770066	     55.03818768	     55.03818768	      1.28816692	    -15.41141868	      1.00621834	     12.83171013	     -5.86151321	     -6.88738008	     21.92620592	     21.92620592	     13.42995101	    -13.09982226	     -0.55167394	    -11.31397595	      3.98954162	      2.07042349	      5.31586507	    -15.19077407	     -2.88012472	     22.96419331	     47.28814985	      0.00000000	      0.00000000	     13.03275419	    -17.38546502	      5.41301522	     52.96648023	     45.46932087	      0.00000000	      0.00000000
     17.51085714	     -3.09513547	     -4.14820883	     -0.09858597	      1.01564919	      0.93239016	      0.41980364	     30.91019881	     -4.86402292	     -5.96578060	     51.83344189	     51.83344189	      1.77612285	    -14.84348622	      0.89077286	     12.40540691	     -5.95284690	     -7.34304097	     21.56843577	     21.56843577	     13.57677099	    -13.09916447	     -0.61222070	    -11.35909686	      4.05562472	      2.33815207	      4.79872442	    -15.52777371	     -3.49641173	     22.49828112	     47.35437464	      0.00000000	      0.00000000	     13.18561951	    -17.35555738	      5.21710121	     53.96174087	     45.51746738	      0.00000000	      0.00000000
     17.52364286	     -3.36632141	     -4.12392885	     -0.60067802	      1.01537596	      0.93221438	      0.42081355	     30.87987564	     -4.67113019	     -6.33642795	     48.05804317	     48.05804317	      1.32988681	    -14.39539986	     -1.83078902	     12.04809021	     -6.00843314	     -7.78121185	     21.14843492	     21.14843492	     13.55849793	    -13.15972112	     -1.04294605	    -11.30647735	      4.11098313	      2.22586551	      5.28886598	    -15.01879266	    -10.53250235	     20.62180259	     47.96785157	      0.00000000	      0.00000000	     12.75839047	    -17.38069370	      4.39243523	     55.66761777	     45.89485530	      0.00000000	      0.00000000
     17.53642857	     -3.64874191	     -4.13988915	     -1.09236428	      1.01514475	      0.93201592	      0.42198403	     30.78895382	     -4.36610267	     -6.67781693	     44.18792660	     44.18792660	      1.88105492	    -13.01622744	     -1.65591600	     11.73191340	     -6.11749803	     -8.18110871	     20.80169758	     20.80169758	     13.71104073	    -13.16428002	     -1.05504440	    -11.21743537	      4.21531055	      2.31447804	      4.91809881	    -15.33276645	    -10.64616236	     20.50292715	     47.97512398	      0.00000000	      0.00000000	     12.84854359	    -17.33385498	      4.40920647	     56.18588933	     45.90917093	      0.00000000	      0.00000000
     17.54921429	     -4.02183194	     -4.12588742	     -1.60574688	      1.01499533	      0.93166983	      0.42343970	     30.63905671	     -3.99162083	     -6.92762352	     40.05811378	     40.05811378	      2.35167874	    -11.28563753	     -1.51142530	     11.47716833	     -6.21180326	     -8.61868186	     20.39977394	     20.39977394	     13.83138263	    -13.14870289	     -1.07907163	    -11.03164366	      4.24676598	      2.44142376	      4.58871686	    -15.47761788	    -10.72928186	     20.41185546	     47.97976784	      0.00000000	      0.00000000	     12.89911579	    -17.30932087	      4.39123796	     56.71766779	     45.92371694	      0.00000000	      0.00000000
     17.56200000	     -4.09181942	     -3.97963759	     -2.06556332	      1.01526382	      0.93167289	      0.42474057	     29.94222710	     -3.89614497	     -7.54313974	     35.71912882	     35.71912882	      2.78033192	     -8.47630741	     -1.86453753	     10.79602486	     -6.14552293	     -9.19248263	     19.86447153	     19.86447153	     13.94457303	    -12.91764799	     -1.30438479	    -11.20331757	      4.15603713	      2.62962546	      4.22733696	    -15.68486197	    -10.98353393	     20.45837831	     47.98527928	      0.00000000	      0.00000000	     12.82427978	    -17.22868219	      4.31082616	     57.99630271	     45.96437581	      0.00000000	      0.00000000
     17.57478571	     -4.30363491	     -3.95318936	     -2.47840482	      1.01564763	      0.93145730	      0.42638985	     29.21295275	     -3.48599351	     -7.96270791	     31.21064682	     31.21064682	      3.00925790	     -6.01144777	     -1.64766949	     10.31382913	     -6.21240331	     -9.54704659	     19.41276638	     19.41276638	     14.03890465	    -12.85490594	     -1.46564899	    -11.15997959	      4.13746018	      2.63590533	      4.01673168	    -15.82131758	    -11.14195103	     20.52193186	     47.98671222	      0.00000000	      0.00000000	     12.69574593	    -17.14414617	      4.26536022	     58.69264686	     45.98806496	      0.00000000	      0.00000000
     17.58757143	     -4.53916211	     -3.81779029	     -2.85274709	      1.01632423	      0.93106418	      0.42802042	     28.43918894	     -3.16859867	     -8.33184032	     26.85365802	     26.85365802	      3.12243053	     -3.45039802	     -1.14609296	      9.81726804	     -6.14526821	     -9.95988259	     18.89180332	     18.89180332	     14.12656348	    -12.76445639	     -1.63292570	    -11.01738503	      4.11785073	      2.67344921	      3.80214886	    -15.81700862	    -11.26180837	     20.59520646	     47.98450786	      0.00000000	      0.00000000	     12.56649513	    -17.04093273	      4.21374765	     59.29713876	     46.00912288	      0.00000000	      0.00000000
     17.60035714	     -4.59473880	     -3.64787412	     -3.19219598	      1.01741182	      0.93080474	      0.42981057	     27.41426105	     -2.93500239	     -8.94007561	     22.80108374	     22.80108374	      3.24896602	     -0.50103454	     -0.37432830	      9.05371344	     -6.02982717	    -10.38103601	     18.27855646	     18.27855646	     14.19146262	    -12.61896260	     -1.90612463	    -11.05481472	      4.00394151	      2.71235163	      3.63896465	    -15.78831265	    -11.41745781	     20.78638599	     47.97729108	      0.00000000	      0.00000000	     12.38816296	    -16.91970918	      4.11311739	     60.00269018	     46.03880857	      0.00000000	      0.00000000
     17.61314286	     -4.71710545	     -3.48705024	     -3.47287258	      1.01873694	      0.93032364	      0.43173611	     26.50550135	     -2.65754164	     -9.44386272	     19.24914557	     19.24914557	      3.19302929	      1.92247965	      0.71535605	      8.36742480	     -5.91974168	    -10.69330768	     17.68377178	     17.68377178	     14.25512258	    -12.50698347	     -2.15368602	    -10.96600532	      3.90280416	      2.70098988	      3.47666759	    -15.69849393	    -11.53535314	     20.97660915	     47.96725998	      0.00000000	      0.00000000	     12.16895209	    -16.75668205	      4.04964489	     60.50132801	     46.06066649	      0.00000000	      0.00000000
     17.62592857	     -4.77951768	     -3.30433995	     -3.72819826	      1.02031402	      0.92981316	      0.43374207	     25.79193579	     -2.52400906	    -10.25872365	     16.75168620	     16.75168620	      4.00218965	      4.59874497	      4.09120042	      7.52081665	     -5.74574815	    -10.93116566	     16.88500560	     16.88500560	     13.91660852	    -12.68063813	     -3.22155988	    -10.91138567	      3.75716752	      2.57217334	      3.25970334	    -15.52064004	    -12.02393542	     21.79878174	     47.89710521	      0.00000000	      0.00000000	     11.65275045	    -16.56626815	      3.48442913	     61.49176731	     46.19380066	      0.00000000	      0.00000000
     17.63871429	     -4.80056521	     -3.22364938	     -3.93343190	      1.02211518	      0.92929182	      0.43601006	     24.96385556	     -2.18568253	    -10.68303296	     14.53558450	     14.53558450	      3.70301080	      5.89772344	      4.77505636	      6.71776965	     -5.72050338	    -11.13956569	     16.32909460	     16.32909460	     14.12514032	    -12.52653998	     -3.21981241	    -10.83904676	      3.73851329	      2.60389138	      3.23085608	    -15.38387494	    -12.03118084	     21.85790440	     47.88233208	      0.00000000	      0.00000000	     11.52219409	    -16.31278770	      3.54656390	     61.52434063	     46.20039472	      0.00000000	      0.00000000
     17.65150000	     -4.87728827	     -3.14286365	     -4.08106298	      1.02410782	      0.92860434	      0.43842235	     24.35935982	     -1.91528724	    -11.14399960	     13.12383566	     13.12383566	      3.40295875	      6.74149493	      5.16823891	      5.99469492	     -5.71014521	    -11.32086424	     15.81032720	     15.81032720	     14.35080760	    -12.37418394	     -3.19360210	    -10.63556785	      3.71982339	      2.62354420	      3.20618043	    -15.21744817	    -12.03281516	     22.00087860	     47.86548233	      0.00000000	      0.00000000	     11.34678998	    -16.08960164	      3.56456274	     61.52656766	     46.20666609	      0.00000000	      0.00000000
     17.66428571	     -4.89446568	     -3.16547071	     -4.19268704	      1.02625703	      0.92794992	      0.44100942	     23.81911761	     -1.59833998	    -11.59483413	     12.40155184	     12.40155184	      3.09868913	      7.18115190	      5.21013686	      5.21901494	     -5.81953050	    -11.43866405	     15.34417868	     15.34417868	     14.61517026	    -12.21892449	     -3.10842541	    -10.48949984	      3.82774773	      2.62737625	      3.24532014	    -15.02703912	    -12.02297938	     22.21355916	     47.84602268	      0.00000000	      0.00000000	     11.09627033	    -15.78263647	      3.58095966	     61.45853361	     46.21010258	      0.00000000	      0.00000000
     17.67707143	     -4.83479166	     -3.20413379	     -4.24470248	      1.02856832	      0.92726287	      0.44377491	     23.21969679	     -1.30692522	    -12.03446735	     12.03851136	     12.03851136	      2.11036216	      7.24684992	      2.72652170	      4.46362181	     -5.98805556	    -11.58671676	     15.11515750	     15.11515750	     15.26810122	    -11.82832217	     -2.34839896	    -10.41884711	      3.92338941	      2.68693772	      2.98801397	    -14.83667571	    -11.84841468	     23.30537072	     47.70948650	      0.00000000	      0.00000000	     10.93250415	    -15.25969010	      2.96690570	     61.17039955	     46.30520468	      0.00000000	      0.00000000
     17.68985714	     -4.90098237	     -3.36394453	     -4.26689442	      1.03081946	      0.92639208	      0.44674684	     22.94123395	     -0.93885855	    -12.33583061	     12.34714913	     12.34714913	      2.01374103	      6.99490007	      2.56848558	      3.92487024	     -6.31524156	    -11.55499403	     15.00108747	     15.00108747	     15.55212167	    -11.86255080	     -2.33110224	    -10.17675853	      4.16053541	      2.75740415	      3.12575082	    -14.58010159	    -11.80450246	     23.40101375	     47.69908563	      0.00000000	      0.00000000	     10.63522316	    -14.97067709	      3.07221646	     61.07209992	     46.29545766	      0.00000000	      0.00000000
